<mxfile host="app.diagrams.net" modified="2024-02-12T10:43:39.909Z" agent="Mozilla/5.0 (Macintosh; Intel Mac OS X 10_15_7) AppleWebKit/537.36 (KHTML, like Gecko) Chrome/121.0.0.0 Safari/537.36" etag="DxtUOTbYoIjLmBs42i1O" version="23.1.1" type="device">
  <diagram name="Seite-1" id="iqA32zx6aJ7FPY5LbqSP">
    <mxGraphModel dx="2864" dy="1942" grid="1" gridSize="10" guides="1" tooltips="1" connect="1" arrows="1" fold="1" page="1" pageScale="1" pageWidth="827" pageHeight="1169" math="0" shadow="0">
      <root>
        <mxCell id="0" />
        <mxCell id="1" parent="0" />
        <mxCell id="VoXccPW4dBbE1nh5RzjV-1" value="Alfred" style="swimlane;fontStyle=0;childLayout=stackLayout;horizontal=1;startSize=30;horizontalStack=0;resizeParent=1;resizeParentMax=0;resizeLast=0;collapsible=1;marginBottom=0;whiteSpace=wrap;html=1;" vertex="1" parent="1">
          <mxGeometry x="-413" y="50" width="140" height="150" as="geometry" />
        </mxCell>
        <mxCell id="VoXccPW4dBbE1nh5RzjV-2" value="Knowledge" style="text;strokeColor=none;fillColor=none;align=left;verticalAlign=middle;spacingLeft=4;spacingRight=4;overflow=hidden;points=[[0,0.5],[1,0.5]];portConstraint=eastwest;rotatable=0;whiteSpace=wrap;html=1;" vertex="1" parent="VoXccPW4dBbE1nh5RzjV-1">
          <mxGeometry y="30" width="140" height="30" as="geometry" />
        </mxCell>
        <mxCell id="VoXccPW4dBbE1nh5RzjV-65" value="LLM" style="text;strokeColor=none;fillColor=none;align=left;verticalAlign=middle;spacingLeft=4;spacingRight=4;overflow=hidden;points=[[0,0.5],[1,0.5]];portConstraint=eastwest;rotatable=0;whiteSpace=wrap;html=1;" vertex="1" parent="VoXccPW4dBbE1nh5RzjV-1">
          <mxGeometry y="60" width="140" height="30" as="geometry" />
        </mxCell>
        <mxCell id="VoXccPW4dBbE1nh5RzjV-64" value="Settings" style="text;strokeColor=none;fillColor=none;align=left;verticalAlign=middle;spacingLeft=4;spacingRight=4;overflow=hidden;points=[[0,0.5],[1,0.5]];portConstraint=eastwest;rotatable=0;whiteSpace=wrap;html=1;" vertex="1" parent="VoXccPW4dBbE1nh5RzjV-1">
          <mxGeometry y="90" width="140" height="30" as="geometry" />
        </mxCell>
        <mxCell id="VoXccPW4dBbE1nh5RzjV-60" value="" style="swimlane;fontStyle=0;childLayout=stackLayout;horizontal=1;startSize=0;horizontalStack=0;resizeParent=1;resizeParentMax=0;resizeLast=0;collapsible=1;marginBottom=0;whiteSpace=wrap;html=1;" vertex="1" parent="VoXccPW4dBbE1nh5RzjV-1">
          <mxGeometry y="120" width="140" height="30" as="geometry" />
        </mxCell>
        <mxCell id="VoXccPW4dBbE1nh5RzjV-61" value="Answer(input:String)" style="text;strokeColor=none;fillColor=none;align=left;verticalAlign=middle;spacingLeft=4;spacingRight=4;overflow=hidden;points=[[0,0.5],[1,0.5]];portConstraint=eastwest;rotatable=0;whiteSpace=wrap;html=1;" vertex="1" parent="VoXccPW4dBbE1nh5RzjV-60">
          <mxGeometry width="140" height="30" as="geometry" />
        </mxCell>
        <mxCell id="VoXccPW4dBbE1nh5RzjV-14" style="edgeStyle=orthogonalEdgeStyle;rounded=0;orthogonalLoop=1;jettySize=auto;html=1;exitX=0;exitY=0.5;exitDx=0;exitDy=0;entryX=0.5;entryY=1;entryDx=0;entryDy=0;" edge="1" parent="1" source="VoXccPW4dBbE1nh5RzjV-5" target="VoXccPW4dBbE1nh5RzjV-15">
          <mxGeometry relative="1" as="geometry">
            <mxPoint x="210" y="339.75" as="targetPoint" />
            <mxPoint x="170" y="539.75" as="sourcePoint" />
            <Array as="points">
              <mxPoint x="140" y="540" />
            </Array>
          </mxGeometry>
        </mxCell>
        <mxCell id="VoXccPW4dBbE1nh5RzjV-18" value="False" style="edgeLabel;html=1;align=center;verticalAlign=middle;resizable=0;points=[];" vertex="1" connectable="0" parent="VoXccPW4dBbE1nh5RzjV-14">
          <mxGeometry x="-0.3905" relative="1" as="geometry">
            <mxPoint as="offset" />
          </mxGeometry>
        </mxCell>
        <mxCell id="VoXccPW4dBbE1nh5RzjV-5" value="c &amp;gt; 0" style="rhombus;whiteSpace=wrap;html=1;" vertex="1" parent="1">
          <mxGeometry x="290" y="500" width="80" height="80" as="geometry" />
        </mxCell>
        <mxCell id="VoXccPW4dBbE1nh5RzjV-6" value="Starte Alfred" style="rounded=0;whiteSpace=wrap;html=1;" vertex="1" parent="1">
          <mxGeometry x="270" y="220" width="120" height="60" as="geometry" />
        </mxCell>
        <mxCell id="VoXccPW4dBbE1nh5RzjV-7" value="" style="endArrow=classic;html=1;rounded=0;exitX=0.5;exitY=1;exitDx=0;exitDy=0;entryX=0.5;entryY=0;entryDx=0;entryDy=0;" edge="1" parent="1" source="VoXccPW4dBbE1nh5RzjV-6" target="VoXccPW4dBbE1nh5RzjV-8">
          <mxGeometry width="50" height="50" relative="1" as="geometry">
            <mxPoint x="390" y="470" as="sourcePoint" />
            <mxPoint x="330" y="350" as="targetPoint" />
          </mxGeometry>
        </mxCell>
        <mxCell id="VoXccPW4dBbE1nh5RzjV-8" value="Await Input" style="rounded=0;whiteSpace=wrap;html=1;" vertex="1" parent="1">
          <mxGeometry x="270" y="310" width="120" height="60" as="geometry" />
        </mxCell>
        <mxCell id="VoXccPW4dBbE1nh5RzjV-9" value="" style="endArrow=classic;html=1;rounded=0;exitX=0.5;exitY=1;exitDx=0;exitDy=0;entryX=0.5;entryY=0;entryDx=0;entryDy=0;" edge="1" parent="1" source="VoXccPW4dBbE1nh5RzjV-8" target="VoXccPW4dBbE1nh5RzjV-10">
          <mxGeometry width="50" height="50" relative="1" as="geometry">
            <mxPoint x="340" y="290" as="sourcePoint" />
            <mxPoint x="330" y="480" as="targetPoint" />
          </mxGeometry>
        </mxCell>
        <mxCell id="VoXccPW4dBbE1nh5RzjV-10" value="Find relevant Categories (c)" style="rounded=0;whiteSpace=wrap;html=1;" vertex="1" parent="1">
          <mxGeometry x="270" y="410" width="120" height="60" as="geometry" />
        </mxCell>
        <mxCell id="VoXccPW4dBbE1nh5RzjV-11" value="" style="endArrow=classic;html=1;rounded=0;exitX=0.5;exitY=1;exitDx=0;exitDy=0;entryX=0.5;entryY=0;entryDx=0;entryDy=0;" edge="1" parent="1" source="VoXccPW4dBbE1nh5RzjV-10" target="VoXccPW4dBbE1nh5RzjV-5">
          <mxGeometry width="50" height="50" relative="1" as="geometry">
            <mxPoint x="340" y="380" as="sourcePoint" />
            <mxPoint x="340" y="420" as="targetPoint" />
          </mxGeometry>
        </mxCell>
        <mxCell id="VoXccPW4dBbE1nh5RzjV-12" value="" style="endArrow=classic;html=1;rounded=0;exitX=0.5;exitY=1;exitDx=0;exitDy=0;entryX=0.5;entryY=0;entryDx=0;entryDy=0;" edge="1" parent="1" source="VoXccPW4dBbE1nh5RzjV-5" target="VoXccPW4dBbE1nh5RzjV-16">
          <mxGeometry relative="1" as="geometry">
            <mxPoint x="360" y="530" as="sourcePoint" />
            <mxPoint x="330" y="640" as="targetPoint" />
          </mxGeometry>
        </mxCell>
        <mxCell id="VoXccPW4dBbE1nh5RzjV-13" value="True" style="edgeLabel;resizable=0;html=1;align=center;verticalAlign=middle;" connectable="0" vertex="1" parent="VoXccPW4dBbE1nh5RzjV-12">
          <mxGeometry relative="1" as="geometry" />
        </mxCell>
        <mxCell id="VoXccPW4dBbE1nh5RzjV-15" value="Print &quot;No Data according to Input&quot;" style="rounded=0;whiteSpace=wrap;html=1;" vertex="1" parent="1">
          <mxGeometry x="80" y="420" width="120" height="60" as="geometry" />
        </mxCell>
        <mxCell id="VoXccPW4dBbE1nh5RzjV-19" style="edgeStyle=orthogonalEdgeStyle;rounded=0;orthogonalLoop=1;jettySize=auto;html=1;exitX=0.5;exitY=1;exitDx=0;exitDy=0;entryX=0.5;entryY=0;entryDx=0;entryDy=0;" edge="1" parent="1" source="VoXccPW4dBbE1nh5RzjV-16" target="VoXccPW4dBbE1nh5RzjV-17">
          <mxGeometry relative="1" as="geometry" />
        </mxCell>
        <mxCell id="VoXccPW4dBbE1nh5RzjV-16" value="For c find embeddings (e)" style="rounded=0;whiteSpace=wrap;html=1;" vertex="1" parent="1">
          <mxGeometry x="270" y="650" width="120" height="60" as="geometry" />
        </mxCell>
        <mxCell id="VoXccPW4dBbE1nh5RzjV-20" style="edgeStyle=orthogonalEdgeStyle;rounded=0;orthogonalLoop=1;jettySize=auto;html=1;exitX=0;exitY=0.5;exitDx=0;exitDy=0;entryX=0.5;entryY=1;entryDx=0;entryDy=0;" edge="1" parent="1" source="VoXccPW4dBbE1nh5RzjV-17" target="VoXccPW4dBbE1nh5RzjV-15">
          <mxGeometry relative="1" as="geometry">
            <mxPoint x="140" y="570" as="targetPoint" />
          </mxGeometry>
        </mxCell>
        <mxCell id="VoXccPW4dBbE1nh5RzjV-21" value="False" style="edgeLabel;html=1;align=center;verticalAlign=middle;resizable=0;points=[];" vertex="1" connectable="0" parent="VoXccPW4dBbE1nh5RzjV-20">
          <mxGeometry x="-0.7087" y="1" relative="1" as="geometry">
            <mxPoint as="offset" />
          </mxGeometry>
        </mxCell>
        <mxCell id="VoXccPW4dBbE1nh5RzjV-23" style="edgeStyle=orthogonalEdgeStyle;rounded=0;orthogonalLoop=1;jettySize=auto;html=1;exitX=0.5;exitY=1;exitDx=0;exitDy=0;entryX=0.5;entryY=0;entryDx=0;entryDy=0;" edge="1" parent="1" source="VoXccPW4dBbE1nh5RzjV-17" target="VoXccPW4dBbE1nh5RzjV-22">
          <mxGeometry relative="1" as="geometry" />
        </mxCell>
        <mxCell id="VoXccPW4dBbE1nh5RzjV-17" value="e &amp;gt; 0" style="rhombus;whiteSpace=wrap;html=1;" vertex="1" parent="1">
          <mxGeometry x="290" y="750" width="80" height="80" as="geometry" />
        </mxCell>
        <mxCell id="VoXccPW4dBbE1nh5RzjV-22" value="filter n most relevant embeddings and combine them with prompt to send it to the LLm" style="rounded=0;whiteSpace=wrap;html=1;" vertex="1" parent="1">
          <mxGeometry x="270" y="870" width="120" height="80" as="geometry" />
        </mxCell>
        <mxCell id="VoXccPW4dBbE1nh5RzjV-37" value="" style="edgeStyle=orthogonalEdgeStyle;rounded=0;orthogonalLoop=1;jettySize=auto;html=1;" edge="1" parent="1" source="VoXccPW4dBbE1nh5RzjV-24" target="VoXccPW4dBbE1nh5RzjV-36">
          <mxGeometry relative="1" as="geometry" />
        </mxCell>
        <mxCell id="VoXccPW4dBbE1nh5RzjV-24" value="Category" style="swimlane;fontStyle=0;childLayout=stackLayout;horizontal=1;startSize=30;horizontalStack=0;resizeParent=1;resizeParentMax=0;resizeLast=0;collapsible=1;marginBottom=0;whiteSpace=wrap;html=1;" vertex="1" parent="1">
          <mxGeometry x="-610" y="280" width="140" height="90" as="geometry" />
        </mxCell>
        <mxCell id="VoXccPW4dBbE1nh5RzjV-25" value="Title: String" style="text;strokeColor=none;fillColor=none;align=left;verticalAlign=middle;spacingLeft=4;spacingRight=4;overflow=hidden;points=[[0,0.5],[1,0.5]];portConstraint=eastwest;rotatable=0;whiteSpace=wrap;html=1;" vertex="1" parent="VoXccPW4dBbE1nh5RzjV-24">
          <mxGeometry y="30" width="140" height="30" as="geometry" />
        </mxCell>
        <mxCell id="VoXccPW4dBbE1nh5RzjV-26" value="Phrasen: []String" style="text;strokeColor=none;fillColor=none;align=left;verticalAlign=middle;spacingLeft=4;spacingRight=4;overflow=hidden;points=[[0,0.5],[1,0.5]];portConstraint=eastwest;rotatable=0;whiteSpace=wrap;html=1;" vertex="1" parent="VoXccPW4dBbE1nh5RzjV-24">
          <mxGeometry y="60" width="140" height="30" as="geometry" />
        </mxCell>
        <mxCell id="VoXccPW4dBbE1nh5RzjV-28" value="Embedding" style="swimlane;fontStyle=0;childLayout=stackLayout;horizontal=1;startSize=30;horizontalStack=0;resizeParent=1;resizeParentMax=0;resizeLast=0;collapsible=1;marginBottom=0;whiteSpace=wrap;html=1;" vertex="1" parent="1">
          <mxGeometry x="-610" y="520" width="140" height="90" as="geometry" />
        </mxCell>
        <mxCell id="VoXccPW4dBbE1nh5RzjV-29" value="Vector: Unknown" style="text;strokeColor=none;fillColor=none;align=left;verticalAlign=middle;spacingLeft=4;spacingRight=4;overflow=hidden;points=[[0,0.5],[1,0.5]];portConstraint=eastwest;rotatable=0;whiteSpace=wrap;html=1;" vertex="1" parent="VoXccPW4dBbE1nh5RzjV-28">
          <mxGeometry y="30" width="140" height="30" as="geometry" />
        </mxCell>
        <mxCell id="VoXccPW4dBbE1nh5RzjV-30" value="paragraph: string" style="text;strokeColor=none;fillColor=none;align=left;verticalAlign=middle;spacingLeft=4;spacingRight=4;overflow=hidden;points=[[0,0.5],[1,0.5]];portConstraint=eastwest;rotatable=0;whiteSpace=wrap;html=1;" vertex="1" parent="VoXccPW4dBbE1nh5RzjV-28">
          <mxGeometry y="60" width="140" height="30" as="geometry" />
        </mxCell>
        <mxCell id="VoXccPW4dBbE1nh5RzjV-38" style="edgeStyle=orthogonalEdgeStyle;rounded=0;orthogonalLoop=1;jettySize=auto;html=1;exitX=0.5;exitY=1;exitDx=0;exitDy=0;entryX=0.5;entryY=0;entryDx=0;entryDy=0;" edge="1" parent="1" source="VoXccPW4dBbE1nh5RzjV-36" target="VoXccPW4dBbE1nh5RzjV-28">
          <mxGeometry relative="1" as="geometry" />
        </mxCell>
        <mxCell id="VoXccPW4dBbE1nh5RzjV-36" value="hat n" style="rhombus;whiteSpace=wrap;html=1;fontStyle=0;startSize=30;" vertex="1" parent="1">
          <mxGeometry x="-610" y="400" width="140" height="80" as="geometry" />
        </mxCell>
        <mxCell id="VoXccPW4dBbE1nh5RzjV-46" value="" style="edgeStyle=orthogonalEdgeStyle;rounded=0;orthogonalLoop=1;jettySize=auto;html=1;" edge="1" parent="1" source="VoXccPW4dBbE1nh5RzjV-39" target="VoXccPW4dBbE1nh5RzjV-45">
          <mxGeometry relative="1" as="geometry" />
        </mxCell>
        <mxCell id="VoXccPW4dBbE1nh5RzjV-39" value="Phrase" style="swimlane;fontStyle=0;childLayout=stackLayout;horizontal=1;startSize=30;horizontalStack=0;resizeParent=1;resizeParentMax=0;resizeLast=0;collapsible=1;marginBottom=0;whiteSpace=wrap;html=1;" vertex="1" parent="1">
          <mxGeometry x="-610" y="10" width="140" height="90" as="geometry" />
        </mxCell>
        <mxCell id="VoXccPW4dBbE1nh5RzjV-40" value="Vector: Unknown" style="text;strokeColor=none;fillColor=none;align=left;verticalAlign=middle;spacingLeft=4;spacingRight=4;overflow=hidden;points=[[0,0.5],[1,0.5]];portConstraint=eastwest;rotatable=0;whiteSpace=wrap;html=1;" vertex="1" parent="VoXccPW4dBbE1nh5RzjV-39">
          <mxGeometry y="30" width="140" height="30" as="geometry" />
        </mxCell>
        <mxCell id="VoXccPW4dBbE1nh5RzjV-41" value="Phrasen: []String" style="text;strokeColor=none;fillColor=none;align=left;verticalAlign=middle;spacingLeft=4;spacingRight=4;overflow=hidden;points=[[0,0.5],[1,0.5]];portConstraint=eastwest;rotatable=0;whiteSpace=wrap;html=1;" vertex="1" parent="VoXccPW4dBbE1nh5RzjV-39">
          <mxGeometry y="60" width="140" height="30" as="geometry" />
        </mxCell>
        <mxCell id="VoXccPW4dBbE1nh5RzjV-43" style="edgeStyle=orthogonalEdgeStyle;rounded=0;orthogonalLoop=1;jettySize=auto;html=1;exitX=0.5;exitY=1;exitDx=0;exitDy=0;entryX=0.5;entryY=0;entryDx=0;entryDy=0;" edge="1" parent="1" source="VoXccPW4dBbE1nh5RzjV-42" target="VoXccPW4dBbE1nh5RzjV-44">
          <mxGeometry relative="1" as="geometry">
            <mxPoint x="-519.6315789473683" y="770" as="targetPoint" />
          </mxGeometry>
        </mxCell>
        <mxCell id="VoXccPW4dBbE1nh5RzjV-42" value="Phrase 1" style="rounded=0;whiteSpace=wrap;html=1;" vertex="1" parent="1">
          <mxGeometry x="-580" y="640" width="120" height="60" as="geometry" />
        </mxCell>
        <mxCell id="VoXccPW4dBbE1nh5RzjV-44" value="Category 1" style="rounded=0;whiteSpace=wrap;html=1;" vertex="1" parent="1">
          <mxGeometry x="-580" y="750" width="120" height="60" as="geometry" />
        </mxCell>
        <mxCell id="VoXccPW4dBbE1nh5RzjV-47" style="edgeStyle=orthogonalEdgeStyle;rounded=0;orthogonalLoop=1;jettySize=auto;html=1;exitX=0.5;exitY=1;exitDx=0;exitDy=0;entryX=0.5;entryY=0;entryDx=0;entryDy=0;" edge="1" parent="1" source="VoXccPW4dBbE1nh5RzjV-45" target="VoXccPW4dBbE1nh5RzjV-24">
          <mxGeometry relative="1" as="geometry" />
        </mxCell>
        <mxCell id="VoXccPW4dBbE1nh5RzjV-45" value="hat n" style="rhombus;whiteSpace=wrap;html=1;fontStyle=0;startSize=30;" vertex="1" parent="1">
          <mxGeometry x="-580" y="160" width="80" height="80" as="geometry" />
        </mxCell>
        <mxCell id="VoXccPW4dBbE1nh5RzjV-48" value="Knowledge (Chroma)" style="swimlane;fontStyle=0;childLayout=stackLayout;horizontal=1;startSize=30;horizontalStack=0;resizeParent=1;resizeParentMax=0;resizeLast=0;collapsible=1;marginBottom=0;whiteSpace=wrap;html=1;" vertex="1" parent="1">
          <mxGeometry x="-210" y="220" width="140" height="180" as="geometry" />
        </mxCell>
        <mxCell id="VoXccPW4dBbE1nh5RzjV-49" value="Topics: []Keywords" style="text;strokeColor=none;fillColor=none;align=left;verticalAlign=middle;spacingLeft=4;spacingRight=4;overflow=hidden;points=[[0,0.5],[1,0.5]];portConstraint=eastwest;rotatable=0;whiteSpace=wrap;html=1;" vertex="1" parent="VoXccPW4dBbE1nh5RzjV-48">
          <mxGeometry y="30" width="140" height="30" as="geometry" />
        </mxCell>
        <mxCell id="VoXccPW4dBbE1nh5RzjV-68" value="Collections: []collection" style="text;strokeColor=none;fillColor=none;align=left;verticalAlign=middle;spacingLeft=4;spacingRight=4;overflow=hidden;points=[[0,0.5],[1,0.5]];portConstraint=eastwest;rotatable=0;whiteSpace=wrap;html=1;" vertex="1" parent="VoXccPW4dBbE1nh5RzjV-48">
          <mxGeometry y="60" width="140" height="30" as="geometry" />
        </mxCell>
        <mxCell id="VoXccPW4dBbE1nh5RzjV-69" value="" style="swimlane;fontStyle=0;childLayout=stackLayout;horizontal=1;startSize=0;horizontalStack=0;resizeParent=1;resizeParentMax=0;resizeLast=0;collapsible=1;marginBottom=0;whiteSpace=wrap;html=1;" vertex="1" parent="VoXccPW4dBbE1nh5RzjV-48">
          <mxGeometry y="90" width="140" height="90" as="geometry" />
        </mxCell>
        <mxCell id="VoXccPW4dBbE1nh5RzjV-71" value="GetEmbeddings()" style="text;strokeColor=none;fillColor=none;align=left;verticalAlign=middle;spacingLeft=4;spacingRight=4;overflow=hidden;points=[[0,0.5],[1,0.5]];portConstraint=eastwest;rotatable=0;whiteSpace=wrap;html=1;" vertex="1" parent="VoXccPW4dBbE1nh5RzjV-69">
          <mxGeometry width="140" height="30" as="geometry" />
        </mxCell>
        <mxCell id="VoXccPW4dBbE1nh5RzjV-70" value="getTopic()" style="text;strokeColor=none;fillColor=none;align=left;verticalAlign=middle;spacingLeft=4;spacingRight=4;overflow=hidden;points=[[0,0.5],[1,0.5]];portConstraint=eastwest;rotatable=0;whiteSpace=wrap;html=1;" vertex="1" parent="VoXccPW4dBbE1nh5RzjV-69">
          <mxGeometry y="30" width="140" height="30" as="geometry" />
        </mxCell>
        <mxCell id="VoXccPW4dBbE1nh5RzjV-72" value="searchCollection()" style="text;strokeColor=none;fillColor=none;align=left;verticalAlign=middle;spacingLeft=4;spacingRight=4;overflow=hidden;points=[[0,0.5],[1,0.5]];portConstraint=eastwest;rotatable=0;whiteSpace=wrap;html=1;" vertex="1" parent="VoXccPW4dBbE1nh5RzjV-69">
          <mxGeometry y="60" width="140" height="30" as="geometry" />
        </mxCell>
        <mxCell id="VoXccPW4dBbE1nh5RzjV-52" style="edgeStyle=orthogonalEdgeStyle;rounded=0;orthogonalLoop=1;jettySize=auto;html=1;entryX=-0.011;entryY=0.086;entryDx=0;entryDy=0;entryPerimeter=0;exitX=0.994;exitY=0.097;exitDx=0;exitDy=0;exitPerimeter=0;" edge="1" parent="1" source="VoXccPW4dBbE1nh5RzjV-1" target="VoXccPW4dBbE1nh5RzjV-48">
          <mxGeometry relative="1" as="geometry">
            <mxPoint x="-230" y="130" as="sourcePoint" />
          </mxGeometry>
        </mxCell>
        <mxCell id="VoXccPW4dBbE1nh5RzjV-53" value="Hat 1" style="edgeLabel;html=1;align=center;verticalAlign=middle;resizable=0;points=[];" vertex="1" connectable="0" parent="VoXccPW4dBbE1nh5RzjV-52">
          <mxGeometry x="0.2314" relative="1" as="geometry">
            <mxPoint as="offset" />
          </mxGeometry>
        </mxCell>
        <mxCell id="VoXccPW4dBbE1nh5RzjV-73" value="Chroma" style="swimlane;fontStyle=0;childLayout=stackLayout;horizontal=1;startSize=30;horizontalStack=0;resizeParent=1;resizeParentMax=0;resizeLast=0;collapsible=1;marginBottom=0;whiteSpace=wrap;html=1;" vertex="1" parent="1">
          <mxGeometry x="-10" y="-80" width="140" height="150" as="geometry" />
        </mxCell>
        <mxCell id="VoXccPW4dBbE1nh5RzjV-74" value="Collections: []collection" style="text;strokeColor=none;fillColor=none;align=left;verticalAlign=middle;spacingLeft=4;spacingRight=4;overflow=hidden;points=[[0,0.5],[1,0.5]];portConstraint=eastwest;rotatable=0;whiteSpace=wrap;html=1;" vertex="1" parent="VoXccPW4dBbE1nh5RzjV-73">
          <mxGeometry y="30" width="140" height="30" as="geometry" />
        </mxCell>
        <mxCell id="VoXccPW4dBbE1nh5RzjV-75" value="LLM" style="text;strokeColor=none;fillColor=none;align=left;verticalAlign=middle;spacingLeft=4;spacingRight=4;overflow=hidden;points=[[0,0.5],[1,0.5]];portConstraint=eastwest;rotatable=0;whiteSpace=wrap;html=1;" vertex="1" parent="VoXccPW4dBbE1nh5RzjV-73">
          <mxGeometry y="60" width="140" height="30" as="geometry" />
        </mxCell>
        <mxCell id="VoXccPW4dBbE1nh5RzjV-76" value="Settings" style="text;strokeColor=none;fillColor=none;align=left;verticalAlign=middle;spacingLeft=4;spacingRight=4;overflow=hidden;points=[[0,0.5],[1,0.5]];portConstraint=eastwest;rotatable=0;whiteSpace=wrap;html=1;" vertex="1" parent="VoXccPW4dBbE1nh5RzjV-73">
          <mxGeometry y="90" width="140" height="30" as="geometry" />
        </mxCell>
        <mxCell id="VoXccPW4dBbE1nh5RzjV-77" value="" style="swimlane;fontStyle=0;childLayout=stackLayout;horizontal=1;startSize=0;horizontalStack=0;resizeParent=1;resizeParentMax=0;resizeLast=0;collapsible=1;marginBottom=0;whiteSpace=wrap;html=1;" vertex="1" parent="VoXccPW4dBbE1nh5RzjV-73">
          <mxGeometry y="120" width="140" height="30" as="geometry" />
        </mxCell>
        <mxCell id="VoXccPW4dBbE1nh5RzjV-78" value="Answer(input:String)" style="text;strokeColor=none;fillColor=none;align=left;verticalAlign=middle;spacingLeft=4;spacingRight=4;overflow=hidden;points=[[0,0.5],[1,0.5]];portConstraint=eastwest;rotatable=0;whiteSpace=wrap;html=1;" vertex="1" parent="VoXccPW4dBbE1nh5RzjV-77">
          <mxGeometry width="140" height="30" as="geometry" />
        </mxCell>
      </root>
    </mxGraphModel>
  </diagram>
</mxfile>
